<svg width="28" height="28" viewBox="0 0 28 28" fill="none" xmlns="http://www.w3.org/2000/svg">
<g clip-path="url(#clip0_206_4)">
<path d="M9.77291 1.43062C9.80572 1.45294 9.84028 1.47437 9.87834 1.49712C9.89409 1.50631 9.91072 1.51506 9.92734 1.52425C9.97109 1.547 10.0148 1.568 10.0634 1.59206C10.0778 1.59906 10.0927 1.60606 10.1072 1.61263C10.4594 1.75967 10.8259 1.86964 11.2009 1.94075L11.2167 1.94381C11.3304 1.967 11.449 1.98756 11.5732 2.00944C12.376 2.13417 13.1876 2.19372 14 2.1875C16.415 2.1875 17.9375 1.75 18.375 1.3125C18.375 1.3125 17.5 0.4375 14 0.4375C10.5 0.4375 9.62503 1.3125 9.62503 1.3125C9.65927 1.34568 9.69582 1.37638 9.73441 1.40437C9.74622 1.41312 9.76022 1.42187 9.77291 1.43062Z" fill="#DE8800"/>
<path d="M10.1063 1.6126C10.091 1.60604 10.0761 1.59904 10.0625 1.59204C10.0783 1.59904 10.0923 1.60604 10.1063 1.6126Z" fill="#FFC608"/>
<path d="M11.5736 2.00944L11.725 2.5375C11.8759 3.06676 12.1951 3.53244 12.6343 3.86401C13.0736 4.19558 13.6089 4.37496 14.1593 4.375H16.069C16.6053 4.3729 17.1238 4.18226 17.5337 3.83644L18.375 1.3125C17.9375 1.75 16.415 2.1875 14 2.1875C13.1877 2.1937 12.3763 2.13415 11.5736 2.00944Z" fill="#FFC608"/>
<path d="M16.2138 7.875H13.566C11.7938 8.87819 10.3279 10.3446 9.32542 12.1172C8.32291 13.8898 7.82154 15.9018 7.87503 17.9375C7.87503 26.25 24.9375 24.9375 24.9375 21C24.9375 17.8325 21.1925 9.835 16.2138 7.875Z" fill="#FFC608"/>
<path d="M9.87833 1.4971C9.84026 1.47523 9.8057 1.45335 9.77289 1.4306C9.8057 1.45292 9.84026 1.47523 9.87833 1.4971Z" fill="#F09413"/>
<path d="M11.5736 2.00941C11.4494 1.98929 11.3308 1.96566 11.2171 1.94379C11.3313 1.96872 11.4494 1.98929 11.5736 2.00941Z" fill="#F09413"/>
<path d="M10.0625 1.59204C10.014 1.56973 9.96889 1.54829 9.92645 1.52423C9.96933 1.54698 10.0148 1.56973 10.0625 1.59204Z" fill="#F09413"/>
<path d="M27.5625 10.9375L26.1057 11.6681L25.375 13.125L24.6444 11.6681L23.1875 10.9375L24.6444 10.2069L25.375 8.75L26.1057 10.2069L27.5625 10.9375Z" fill="#FF9C00"/>
<path d="M4.8125 5.6875L3.35563 6.41813L2.625 7.875L1.89437 6.41813L0.4375 5.6875L1.89437 4.95687L2.625 3.5L3.35563 4.95687L4.8125 5.6875Z" fill="#FF9C00"/>
<path d="M18.0425 17.3906C17.9729 17.5645 17.9372 17.7502 17.9375 17.9375V24.0756C17.5044 24.0887 17.0669 24.0887 16.625 24.0669V19.25C16.625 18.5238 17.1675 17.8675 18.0425 17.3906Z" fill="#F09413"/>
<path d="M17.5145 1.75526C16.374 1.4217 15.1876 1.27223 14 1.31251C12.8125 1.27223 11.6261 1.4217 10.4856 1.75526C11.629 2.07385 12.8136 2.21955 14 2.18751C15.1865 2.21955 16.3711 2.07385 17.5145 1.75526Z" fill="#C97C10"/>
<path d="M17.8995 7C17.8603 6.87517 17.783 6.76578 17.6784 6.68728C17.5737 6.60878 17.4471 6.56513 17.3163 6.5625C17.4856 6.55758 17.646 6.48574 17.7625 6.36274C17.8789 6.23973 17.9419 6.07558 17.9375 5.90625C17.9369 5.83174 17.924 5.75785 17.8995 5.6875C17.8603 5.56267 17.783 5.45328 17.6784 5.37478C17.5737 5.29628 17.4471 5.25263 17.3163 5.25H10.6838C10.553 5.25263 10.4263 5.29628 10.3217 5.37478C10.217 5.45328 10.1397 5.56267 10.1006 5.6875C10.076 5.75785 10.0632 5.83174 10.0625 5.90625C10.0582 6.07558 10.1211 6.23973 10.2376 6.36274C10.354 6.48574 10.5145 6.55758 10.6838 6.5625C10.553 6.56513 10.4263 6.60878 10.3217 6.68728C10.217 6.76578 10.1397 6.87517 10.1006 7C10.076 7.07035 10.0632 7.14424 10.0625 7.21875C10.0582 7.38808 10.1211 7.55223 10.2376 7.67524C10.354 7.79824 10.5145 7.87008 10.6838 7.875H17.3163C17.4856 7.87008 17.646 7.79824 17.7625 7.67524C17.8789 7.55223 17.9419 7.38808 17.9375 7.21875C17.9369 7.14424 17.924 7.07035 17.8995 7Z" fill="#A80132"/>
<path d="M16.695 5.25H17.0625L17.5337 3.83644C17.1238 4.18226 16.6053 4.3729 16.069 4.375H14.1593C13.6089 4.37496 13.0736 4.19558 12.6344 3.86401C12.1951 3.53244 11.8759 3.06676 11.725 2.5375L11.5737 2.00813C11.4494 1.988 11.3308 1.96438 11.2171 1.9425L11.2 1.94075C10.825 1.86964 10.4585 1.75967 10.1063 1.61263C10.0905 1.60606 10.0765 1.59906 10.0625 1.59206C10.014 1.56975 9.96847 1.54831 9.92647 1.52425C9.90984 1.51506 9.89322 1.50631 9.87747 1.49712C9.83941 1.47525 9.80484 1.45337 9.77203 1.43062C9.75934 1.42187 9.74534 1.41313 9.73353 1.40438C9.69524 1.37635 9.65899 1.34564 9.62503 1.3125L10.9375 5.25H16.695Z" fill="#F09413"/>
<path d="M7.875 17.9375C7.82151 15.9018 8.32288 13.8898 9.32539 12.1172C10.3279 10.3446 11.7938 8.87819 13.566 7.875H11.7863C6.8075 9.835 3.0625 17.8325 3.0625 21C3.0625 24.6225 7.95812 27.5625 14 27.5625C20.0419 27.5625 24.9375 24.6225 24.9375 21C24.9375 24.9375 7.875 26.25 7.875 17.9375Z" fill="#FF9C00"/>
<path d="M14.4375 22.3125V22.7356C14.7699 22.7154 15.0939 22.6238 15.3876 22.467C15.6813 22.3101 15.9377 22.0918 16.1394 21.8269C15.737 22.1398 15.2422 22.3106 14.7324 22.3125H14.4375Z" fill="#FFAA00"/>
<path d="M13.5625 22.3125H11.375C11.259 22.3125 11.1477 22.2664 11.0657 22.1844C10.9836 22.1023 10.9375 21.991 10.9375 21.875V21.4375H10.5V22.3125C10.5 22.4285 10.5461 22.5398 10.6282 22.6219C10.7102 22.7039 10.8215 22.75 10.9375 22.75H13.125V23.625H14V23.1875H13.5625V22.3125Z" fill="#FFAA00"/>
<path d="M15.3125 13.5625H14.4375V14H14.875V14.4375H15.75V14H15.3125V13.5625Z" fill="#FFAA00"/>
<path d="M13.5625 12.6875V12.25H13.125V12.7019C13.1732 12.6989 13.2187 12.6875 13.2677 12.6875H13.5625Z" fill="#FFAA00"/>
<path d="M13.5625 17.7703L12.2255 17.1018C11.9181 16.9499 11.6484 16.7316 11.4357 16.4626C11.2231 16.1936 11.073 15.8807 10.9962 15.5465C10.9194 15.2124 10.9179 14.8653 10.9917 14.5305C11.0655 14.1957 11.2129 13.8815 11.4231 13.6106C11.1074 13.8486 10.8578 14.1633 10.6979 14.5249C10.5381 14.8866 10.4734 15.283 10.51 15.6767C10.5465 16.0704 10.6831 16.4482 10.9068 16.7742C11.1305 17.1002 11.4339 17.3636 11.788 17.5393L13.125 18.2078V21.4375H13.5625V17.7703Z" fill="#FFAA00"/>
<path d="M12.0457 14.2332C12.2792 14.0814 12.5517 14.0004 12.8302 14H13.125V16.5734L13.5625 16.7921V13.5625H13.2677C13.0241 13.563 12.7845 13.6246 12.571 13.7418C12.3575 13.859 12.1769 14.028 12.0457 14.2332Z" fill="#FFAA00"/>
<path d="M16.1875 19.9824C16.1884 19.7121 16.1135 19.4469 15.9714 19.2169C15.8293 18.987 15.6256 18.8014 15.3834 18.6813L14.4375 18.2079V18.8641L14.9459 19.1183C15.1286 19.2094 15.29 19.338 15.4195 19.4958C15.549 19.6536 15.6437 19.837 15.6974 20.034C15.7511 20.2309 15.7626 20.437 15.7311 20.6387C15.6996 20.8404 15.6258 21.0331 15.5147 21.2043C15.7203 21.0734 15.8897 20.8929 16.0073 20.6794C16.1249 20.4658 16.1868 20.2262 16.1875 19.9824Z" fill="#FFAA00"/>
<path d="M17.9375 24.9375V17.9375C17.9372 17.7502 17.9729 17.5645 18.0425 17.3906C17.1675 17.8675 16.625 18.5238 16.625 19.25V26.25C16.6337 26.6373 16.7759 27.0098 17.0275 27.3044C17.7891 27.1786 18.5396 26.9929 19.2719 26.7487C18.445 26.2806 17.9375 25.6419 17.9375 24.9375Z" fill="#FF9C00"/>
<path d="M27.5625 23.1875V24.9375C27.5625 26.3856 25.41 27.5625 22.75 27.5625C20.09 27.5625 17.9375 26.3856 17.9375 24.9375V23.1875C17.9375 24.6356 20.09 25.8125 22.75 25.8125C25.41 25.8125 27.5625 24.6356 27.5625 23.1875Z" fill="#FFCB52"/>
<path d="M27.5625 19.6875V21.4375C27.5625 22.8856 25.41 24.0625 22.75 24.0625C20.09 24.0625 17.9375 22.8856 17.9375 21.4375V19.6875C17.9375 21.1356 20.09 22.3125 22.75 22.3125C25.41 22.3125 27.5625 21.1356 27.5625 19.6875Z" fill="#FFCB52"/>
<path d="M27.5625 21.4375V23.1875C27.5625 24.6356 25.41 25.8125 22.75 25.8125C20.09 25.8125 17.9375 24.6356 17.9375 23.1875V21.4375C17.9375 22.8856 20.09 24.0625 22.75 24.0625C25.41 24.0625 27.5625 22.8856 27.5625 21.4375Z" fill="#F09413"/>
<path d="M27.5625 17.9375V19.6875C27.5625 21.1356 25.41 22.3125 22.75 22.3125C20.09 22.3125 17.9375 21.1356 17.9375 19.6875V17.9375C17.9375 19.3856 20.09 20.5625 22.75 20.5625C25.41 20.5625 27.5625 19.3856 27.5625 17.9375Z" fill="#F09413"/>
<path d="M27.5625 17.9375C27.5625 19.3856 25.41 20.5625 22.75 20.5625C20.09 20.5625 17.9375 19.3856 17.9375 17.9375C17.9375 16.4894 20.09 15.3125 22.75 15.3125C25.41 15.3125 27.5625 16.4894 27.5625 17.9375ZM25.8125 17.9375C25.8125 17.2113 24.4432 16.625 22.75 16.625C21.0569 16.625 19.6875 17.2113 19.6875 17.9375C19.6875 18.6637 21.0569 19.25 22.75 19.25C24.4432 19.25 25.8125 18.6637 25.8125 17.9375Z" fill="#FFC052"/>
<path d="M22.75 19.25C24.4414 19.25 25.8125 18.6624 25.8125 17.9375C25.8125 17.2126 24.4414 16.625 22.75 16.625C21.0587 16.625 19.6875 17.2126 19.6875 17.9375C19.6875 18.6624 21.0587 19.25 22.75 19.25Z" fill="#FFDF75"/>
<path d="M27.5625 18.8125V19.6875C27.5625 21.1356 25.41 22.3125 22.75 22.3125C21.6986 22.3282 20.6555 22.124 19.6875 21.7131C18.62 21.2319 17.9375 20.5013 17.9375 19.6875V17.9375C17.9375 18.7513 18.62 19.4819 19.6875 19.9631C19.6862 20.2337 19.7736 20.4972 19.9364 20.7134C20.0992 20.9295 20.3284 21.0863 20.5888 21.1597C21.2937 21.3477 22.0205 21.4411 22.75 21.4375C25.41 21.4375 27.5625 20.2606 27.5625 18.8125Z" fill="#DE8800"/>
<path d="M27.5625 20.5625V21.4375C27.5625 22.8856 25.41 24.0625 22.75 24.0625C21.6986 24.0782 20.6555 23.874 19.6875 23.4631C18.62 22.9819 17.9375 22.2513 17.9375 21.4375V19.6875C17.9375 20.5013 18.62 21.2319 19.6875 21.7131C19.6862 21.9837 19.7736 22.2472 19.9364 22.4634C20.0992 22.6795 20.3284 22.8363 20.5888 22.9097C21.2937 23.0977 22.0205 23.1911 22.75 23.1875C25.41 23.1875 27.5625 22.0106 27.5625 20.5625Z" fill="#DE8800"/>
<path d="M27.5625 22.3125V23.1875C27.5625 24.6356 25.41 25.8125 22.75 25.8125C21.6986 25.8282 20.6555 25.624 19.6875 25.2131C18.62 24.7319 17.9375 24.0013 17.9375 23.1875V21.4375C17.9375 22.2513 18.62 22.9819 19.6875 23.4631C19.6862 23.7337 19.7736 23.9972 19.9364 24.2134C20.0992 24.4295 20.3284 24.5863 20.5888 24.6597C21.2937 24.8477 22.0205 24.9411 22.75 24.9375C25.41 24.9375 27.5625 23.7606 27.5625 22.3125Z" fill="#DE8800"/>
<path d="M27.5625 24.0625V24.9375C27.5625 26.3856 25.41 27.5625 22.75 27.5625C21.6986 27.5782 20.6555 27.374 19.6875 26.9631C18.62 26.4819 17.9375 25.7513 17.9375 24.9375V23.1875C17.9375 24.0013 18.62 24.7319 19.6875 25.2131C19.6862 25.4837 19.7736 25.7472 19.9364 25.9634C20.0992 26.1795 20.3284 26.3363 20.5888 26.4097C21.2937 26.5977 22.0205 26.6911 22.75 26.6875C25.41 26.6875 27.5625 25.5106 27.5625 24.0625Z" fill="#DE8800"/>
<path d="M14 27.125C8.21013 27.125 3.5 24.3775 3.5 21C3.5 17.8421 7.28569 10.1819 11.8768 8.3125H16.1236C18.3024 9.20019 20.5573 11.5036 22.3213 14.651L23.0847 14.2236C22.1471 12.5497 20.3153 9.77988 17.7866 8.1935C17.9271 8.1194 18.05 8.01575 18.1467 7.88967C18.2434 7.76358 18.3117 7.61805 18.3468 7.46308C18.3819 7.30812 18.3831 7.14738 18.3502 6.99192C18.3173 6.83646 18.2511 6.68996 18.1563 6.5625C18.2976 6.37284 18.3743 6.14279 18.375 5.90625C18.3763 5.68001 18.3071 5.45898 18.1771 5.27387C18.047 5.08876 17.8625 4.94875 17.6492 4.87331L18.7902 1.45075C18.8153 1.37388 18.8185 1.2915 18.7992 1.21294C18.78 1.13438 18.7391 1.06278 18.6813 1.00625L18.6852 1.00231C18.5819 0.900375 17.5779 0 14 0C10.4221 0 9.41806 0.900375 9.31569 1.00319L9.31875 1.00625C9.26107 1.06271 9.22028 1.13414 9.20096 1.2125C9.18164 1.29087 9.18455 1.37307 9.20937 1.44987L10.3504 4.87244C10.137 4.948 9.95252 5.08817 9.82251 5.27345C9.69251 5.45873 9.62347 5.67992 9.625 5.90625C9.62572 6.14279 9.7024 6.37284 9.84375 6.5625C9.74886 6.69005 9.68274 6.83665 9.64994 6.9922C9.61714 7.14775 9.61843 7.30857 9.65373 7.46357C9.68903 7.61857 9.7575 7.76409 9.85442 7.8901C9.95135 8.01611 10.0744 8.11962 10.2152 8.1935C5.81875 10.9813 2.625 17.9813 2.625 21C2.625 24.8596 7.728 28 14 28C15.3566 28.0036 16.7093 27.8533 18.032 27.552L17.8347 26.6989C16.5768 26.9859 15.2903 27.1289 14 27.125ZM10.6842 7H17.3158C17.3675 7.00869 17.4145 7.03543 17.4484 7.07548C17.4823 7.11553 17.5009 7.16629 17.5009 7.21875C17.5009 7.27121 17.4823 7.32197 17.4484 7.36202C17.4145 7.40207 17.3675 7.42881 17.3158 7.4375H10.6842C10.6325 7.42881 10.5855 7.40207 10.5516 7.36202C10.5177 7.32197 10.4991 7.27121 10.4991 7.21875C10.4991 7.16629 10.5177 7.11553 10.5516 7.07548C10.5855 7.03543 10.6325 7.00869 10.6842 7ZM10.5 5.90625C10.4959 5.85291 10.5129 5.80009 10.5473 5.75917C10.5818 5.71825 10.6309 5.69251 10.6842 5.6875H17.3158C17.3675 5.69619 17.4145 5.72293 17.4484 5.76298C17.4823 5.80303 17.5009 5.85379 17.5009 5.90625C17.5009 5.95871 17.4823 6.00947 17.4484 6.04952C17.4145 6.08957 17.3675 6.11631 17.3158 6.125H10.6842C10.6309 6.11999 10.5818 6.09426 10.5473 6.05333C10.5129 6.01241 10.4959 5.95959 10.5 5.90625ZM11.2529 4.8125L10.3779 2.18181C11.5573 2.50513 12.7775 2.65443 14 2.625C15.2232 2.65465 16.4442 2.50534 17.6243 2.18181L16.7493 4.8125H11.2529ZM17.4466 1.32038C16.3271 1.6418 15.1642 1.78675 14 1.75C12.8363 1.7865 11.6739 1.64171 10.5547 1.32081C11.6703 0.981615 12.8348 0.830942 14 0.875C15.1656 0.831087 16.3304 0.981605 17.4466 1.32038Z" fill="black"/>
<path d="M14.4375 23.1875V22.3125H14.7324C15.2573 22.3126 15.7669 22.1354 16.1786 21.8096C16.5903 21.4839 16.8799 21.0287 17.0005 20.5177C17.1211 20.0068 17.0656 19.4702 16.8431 18.9947C16.6206 18.5192 16.2441 18.1328 15.7745 17.8981L14.4375 17.2296V13.5625H15.3125V14H16.1875V13.125C16.1875 13.009 16.1414 12.8977 16.0594 12.8156C15.9773 12.7336 15.866 12.6875 15.75 12.6875H14.4375V11.8125H13.5625V12.6875H13.2676C12.7427 12.6874 12.2331 12.8646 11.8214 13.1904C11.4097 13.5161 11.1201 13.9713 10.9995 14.4823C10.8789 14.9932 10.9344 15.5298 11.1569 16.0053C11.3794 16.4808 11.7559 16.8672 12.2255 17.1019L13.5625 17.7704V21.4375H11.8125V21H10.9375V21.875C10.9375 21.991 10.9836 22.1023 11.0656 22.1844C11.1477 22.2664 11.259 22.3125 11.375 22.3125H13.5625V23.1875H14.4375ZM12.6166 16.3187C12.3236 16.172 12.0887 15.9307 11.9499 15.6339C11.8112 15.337 11.7767 15.002 11.852 14.6831C11.9273 14.3642 12.1081 14.0801 12.365 13.8767C12.6219 13.6733 12.9399 13.5626 13.2676 13.5625H13.5625V16.7921L12.6166 16.3187ZM14.4375 18.2079L15.3834 18.6813C15.6764 18.828 15.9113 19.0693 16.0501 19.3661C16.1888 19.663 16.2234 19.998 16.148 20.3169C16.0727 20.6358 15.892 20.9199 15.635 21.1233C15.3781 21.3267 15.0601 21.4374 14.7324 21.4375H14.4375V18.2079Z" fill="black"/>
<path d="M18.9386 2.75531L21.5631 0.130793L22.1817 0.749418L19.5572 3.37393L18.9386 2.75531Z" fill="black"/>
<path d="M19.0074 5.31787L24.257 1.81603L24.7426 2.54403L19.493 6.04587L19.0074 5.31787Z" fill="black"/>
<path d="M5.81491 0.747314L6.43354 0.12869L9.05805 2.75321L8.43943 3.37183L5.81491 0.747314Z" fill="black"/>
<path d="M3.25916 2.55188L3.74478 1.82388L8.99439 5.32572L8.50876 6.05372L3.25916 2.55188Z" fill="black"/>
<path d="M22.992 10.5459C22.9193 10.5822 22.8581 10.6381 22.8154 10.7072C22.7727 10.7763 22.7501 10.856 22.7501 10.9373C22.7501 11.0185 22.7727 11.0982 22.8154 11.1673C22.8581 11.2364 22.9193 11.2923 22.992 11.3286L24.3198 11.9927L24.9835 13.3205C25.0198 13.3933 25.0756 13.4546 25.1448 13.4974C25.214 13.5402 25.2937 13.5629 25.375 13.5629C25.4564 13.5629 25.5361 13.5402 25.6053 13.4974C25.6744 13.4546 25.7303 13.3933 25.7666 13.3205L26.4303 11.9927L27.7581 11.3286C27.8308 11.2923 27.8919 11.2364 27.9346 11.1673C27.9774 11.0982 28 11.0185 28 10.9373C28 10.856 27.9774 10.7763 27.9346 10.7072C27.8919 10.6381 27.8308 10.5822 27.7581 10.5459L26.4303 9.88179L25.7688 8.55398C25.7283 8.48628 25.6709 8.43024 25.6023 8.39133C25.5337 8.35242 25.4561 8.33197 25.3772 8.33197C25.2983 8.33197 25.2208 8.35242 25.1522 8.39133C25.0835 8.43024 25.0262 8.48628 24.9857 8.55398L24.322 9.88179L22.992 10.5459ZM25.0373 10.4037L25.375 9.72823L25.7128 10.4037C25.755 10.4885 25.8237 10.5573 25.9083 10.5997L26.5843 10.9375L25.9083 11.2752C25.8239 11.3177 25.7553 11.3863 25.7128 11.4708L25.375 12.1467L25.0373 11.4708C24.9948 11.3863 24.9262 11.3177 24.8417 11.2752L24.1658 10.9375L24.8417 10.5997C24.9264 10.5573 24.995 10.4885 25.0373 10.4037Z" fill="black"/>
<path d="M3.01878 8.07054L3.68247 6.74273L5.01028 6.0786C5.08297 6.04227 5.1441 5.98642 5.18683 5.91729C5.22956 5.84817 5.25219 5.76852 5.25219 5.68726C5.25219 5.606 5.22956 5.52634 5.18683 5.45722C5.1441 5.3881 5.08297 5.33224 5.01028 5.29591L3.68028 4.63179L3.01878 3.30398C2.97827 3.23628 2.92091 3.18024 2.85228 3.14133C2.78365 3.10242 2.70611 3.08197 2.62722 3.08197C2.54833 3.08197 2.47079 3.10242 2.40216 3.14133C2.33353 3.18024 2.27617 3.23628 2.23566 3.30398L1.56978 4.63179L0.241969 5.29591C0.169281 5.33224 0.108147 5.3881 0.06542 5.45722C0.0226929 5.52634 6.10352e-05 5.606 6.10352e-05 5.68726C6.10352e-05 5.76852 0.0226929 5.84817 0.06542 5.91729C0.108147 5.98642 0.169281 6.04227 0.241969 6.0786L1.56978 6.74273L2.23347 8.07054C2.26975 8.14334 2.32562 8.20459 2.39479 8.2474C2.46395 8.29021 2.54369 8.31288 2.62503 8.31288C2.70638 8.31288 2.78611 8.29021 2.85528 8.2474C2.92445 8.20459 2.98031 8.14334 3.01659 8.07054H3.01878ZM2.28728 6.22079C2.24478 6.1363 2.17621 6.06773 2.09172 6.02523L1.41578 5.68748L2.09172 5.34973C2.17641 5.30729 2.24503 5.23851 2.28728 5.15373L2.62503 4.47823L2.96278 5.15373C3.00503 5.23851 3.07366 5.30729 3.15834 5.34973L3.83428 5.68748L3.15834 6.02523C3.07385 6.06773 3.00529 6.1363 2.96278 6.22079L2.62503 6.89673L2.28728 6.22079Z" fill="black"/>
<path d="M22.75 14.875C19.8061 14.875 17.5 16.2203 17.5 17.9375V24.9375C17.5 26.6547 19.8061 28 22.75 28C25.694 28 28 26.6547 28 24.9375V17.9375C28 16.2203 25.694 14.875 22.75 14.875ZM22.75 27.125C20.3788 27.125 18.375 26.1231 18.375 24.9375V24.9016C19.3078 25.7202 20.9029 26.25 22.75 26.25C24.5972 26.25 26.1923 25.7202 27.125 24.9016V24.9375C27.125 26.1231 25.1213 27.125 22.75 27.125ZM22.75 25.375C20.3788 25.375 18.375 24.3731 18.375 23.1875V23.1516C19.3078 23.9702 20.9029 24.5 22.75 24.5C24.5972 24.5 26.1923 23.9702 27.125 23.1516V23.1875C27.125 24.3731 25.1213 25.375 22.75 25.375ZM22.75 23.625C20.3788 23.625 18.375 22.6231 18.375 21.4375V21.4016C19.3078 22.2202 20.9029 22.75 22.75 22.75C24.5972 22.75 26.1923 22.2202 27.125 21.4016V21.4375C27.125 22.6231 25.1213 23.625 22.75 23.625ZM22.75 21.875C20.3788 21.875 18.375 20.8731 18.375 19.6875V19.6516C19.3078 20.4702 20.9029 21 22.75 21C24.5972 21 26.1923 20.4702 27.125 19.6516V19.6875C27.125 20.8731 25.1213 21.875 22.75 21.875ZM22.75 20.125C20.3788 20.125 18.375 19.1231 18.375 17.9375C18.375 16.7519 20.3788 15.75 22.75 15.75C25.1213 15.75 27.125 16.7519 27.125 17.9375C27.125 19.1231 25.1213 20.125 22.75 20.125Z" fill="black"/>
<path d="M22.75 16.1875C21.0105 16.1875 19.25 16.7886 19.25 17.9375C19.25 19.0864 21.0105 19.6875 22.75 19.6875C24.4895 19.6875 26.25 19.0864 26.25 17.9375C26.25 16.7886 24.4895 16.1875 22.75 16.1875ZM22.75 18.8125C21.1217 18.8125 20.125 18.2438 20.125 17.9375C20.125 17.6313 21.1217 17.0625 22.75 17.0625C24.3784 17.0625 25.375 17.6313 25.375 17.9375C25.375 18.2438 24.3784 18.8125 22.75 18.8125Z" fill="black"/>
</g>
<defs>
<clipPath id="clip0_206_4">
<rect width="28" height="28" fill="white"/>
</clipPath>
</defs>
</svg>
