<svg width="50" height="50" viewBox="0 0 50 50" fill="none" xmlns="http://www.w3.org/2000/svg">
<path d="M25 3.125C20.6735 3.125 16.4442 4.40795 12.8469 6.8116C9.24959 9.21526 6.44581 12.6317 4.79014 16.6288C3.13448 20.6259 2.70128 25.0243 3.54533 29.2676C4.38938 33.5109 6.47277 37.4087 9.53205 40.468C12.5913 43.5272 16.4891 45.6106 20.7324 46.4547C24.9757 47.2987 29.3741 46.8655 33.3712 45.2099C37.3683 43.5542 40.7848 40.7504 43.1884 37.1531C45.5921 33.5558 46.875 29.3265 46.875 25C46.875 19.1984 44.5703 13.6344 40.468 9.53204C36.3656 5.42968 30.8016 3.125 25 3.125ZM25 43.75C21.2916 43.75 17.6665 42.6503 14.5831 40.5901C11.4996 38.5298 9.09641 35.6014 7.67727 32.1753C6.25813 28.7492 5.88681 24.9792 6.61029 21.3421C7.33376 17.7049 9.11952 14.364 11.7418 11.7417C14.364 9.11951 17.7049 7.33375 21.3421 6.61028C24.9792 5.8868 28.7492 6.25812 32.1753 7.67726C35.6014 9.0964 38.5298 11.4996 40.5901 14.5831C42.6503 17.6665 43.75 21.2916 43.75 25C43.75 29.9728 41.7746 34.7419 38.2583 38.2583C34.742 41.7746 29.9728 43.75 25 43.75ZM35.9375 25C35.9375 25.4144 35.7729 25.8118 35.4799 26.1049C35.1868 26.3979 34.7894 26.5625 34.375 26.5625H26.5625V34.375C26.5625 34.7894 26.3979 35.1868 26.1049 35.4799C25.8118 35.7729 25.4144 35.9375 25 35.9375C24.5856 35.9375 24.1882 35.7729 23.8952 35.4799C23.6021 35.1868 23.4375 34.7894 23.4375 34.375V26.5625H15.625C15.2106 26.5625 14.8132 26.3979 14.5202 26.1049C14.2271 25.8118 14.0625 25.4144 14.0625 25C14.0625 24.5856 14.2271 24.1882 14.5202 23.8951C14.8132 23.6021 15.2106 23.4375 15.625 23.4375H23.4375V15.625C23.4375 15.2106 23.6021 14.8132 23.8952 14.5201C24.1882 14.2271 24.5856 14.0625 25 14.0625C25.4144 14.0625 25.8118 14.2271 26.1049 14.5201C26.3979 14.8132 26.5625 15.2106 26.5625 15.625V23.4375H34.375C34.7894 23.4375 35.1868 23.6021 35.4799 23.8951C35.7729 24.1882 35.9375 24.5856 35.9375 25Z" fill="#DD8741"/>
</svg>
