<svg width="34" height="34" viewBox="0 0 34 34" fill="none" xmlns="http://www.w3.org/2000/svg">
<path d="M17 19.125C14.9494 19.125 13.2812 21.0322 13.2812 23.375C13.2812 25.7178 14.9494 27.625 17 27.625C19.0506 27.625 20.7188 25.7178 20.7188 23.375C20.7188 21.0322 19.0506 19.125 17 19.125ZM17 26.5625C15.5338 26.5625 14.3438 25.1334 14.3438 23.375C14.3438 21.6166 15.5338 20.1875 17 20.1875C18.4662 20.1875 19.6562 21.6166 19.6562 23.375C19.6562 25.1334 18.4662 26.5625 17 26.5625Z" fill="#DD8741"/>
<path d="M30.1484 15.0556L25.8984 7.68717C25.5462 7.0771 24.966 6.63195 24.2856 6.44963C23.6051 6.26731 22.8801 6.36276 22.27 6.71499C22.0256 6.85842 22.8703 7.24624 15.1247 2.79436C14.5152 2.44169 13.7907 2.34543 13.1103 2.52673C12.4299 2.70804 11.8494 3.15207 11.4963 3.76123C4.37219 16.1075 5.21156 14.875 4.78125 14.875C4.07677 14.875 3.40114 15.1548 2.903 15.653C2.40485 16.1511 2.125 16.8268 2.125 17.5312V29.2187C2.125 29.9232 2.40485 30.5988 2.903 31.097C3.40114 31.5951 4.07677 31.875 4.78125 31.875H29.2188C29.9232 31.875 30.5989 31.5951 31.097 31.097C31.5951 30.5988 31.875 29.9232 31.875 29.2187V17.5312C31.8724 16.9921 31.7059 16.4666 31.3975 16.0244C31.0891 15.5822 30.6535 15.2443 30.1484 15.0556ZM24.9688 8.21842L28.815 14.875H27.5931L25.1228 10.5931C25.0881 10.5322 25.0417 10.4788 24.9863 10.436C24.9308 10.3931 24.8675 10.3616 24.7998 10.3434C24.7322 10.3251 24.6616 10.3204 24.5921 10.3295C24.5226 10.3386 24.4556 10.3614 24.395 10.3965C24.2136 10.5013 24.0134 10.5693 23.8058 10.5966C23.5981 10.624 23.3871 10.6101 23.1848 10.5558C22.9825 10.5015 22.7929 10.4079 22.6268 10.2803C22.4607 10.1527 22.3214 9.99365 22.2169 9.81217C22.1822 9.7513 22.1358 9.69789 22.0803 9.65503C22.0249 9.61216 21.9615 9.58069 21.8939 9.56242C21.8262 9.54415 21.7556 9.53944 21.6862 9.54857C21.6167 9.5577 21.5497 9.58048 21.4891 9.61561L12.3834 14.875H10.2584L22.7959 7.63936C23.1611 7.42902 23.5947 7.37185 24.0019 7.48037C24.4091 7.58889 24.7567 7.85425 24.9688 8.21842ZM21.6006 10.779C21.9464 11.1706 22.3999 11.4515 22.9045 11.5866C23.4091 11.7217 23.9423 11.7051 24.4375 11.5387L26.3659 14.875H14.5084L21.6006 10.779ZM9.07375 14.3437L12.9572 7.61811C13.4521 7.78269 13.9846 7.79791 14.4881 7.66187C14.9917 7.52583 15.444 7.24455 15.7887 6.85311L18.9125 8.65936L9.07375 14.3437ZM12.4206 4.2978C12.6327 3.93363 12.9803 3.66826 13.3875 3.55974C13.7947 3.45122 14.2283 3.50839 14.5934 3.71874L21.0375 7.43749L19.975 8.05374L15.9056 5.7003C15.7836 5.63104 15.6392 5.61283 15.5039 5.64966C15.3685 5.68648 15.2532 5.77535 15.1831 5.89686C15.0786 6.07904 14.939 6.23875 14.7725 6.36681C14.606 6.49488 14.4158 6.58876 14.2129 6.64307C14.01 6.69738 13.7984 6.71103 13.5901 6.68326C13.3819 6.65549 13.1813 6.58683 12.9997 6.48124C12.9391 6.44611 12.8721 6.42333 12.8026 6.4142C12.7331 6.40507 12.6625 6.40978 12.5949 6.42805C12.5272 6.44632 12.4639 6.47779 12.4084 6.52065C12.353 6.56352 12.3066 6.61692 12.2719 6.6778L7.53312 14.875H6.30594L12.4206 4.2978ZM30.8125 29.2187C30.8125 29.6414 30.6446 30.0468 30.3457 30.3457C30.0468 30.6446 29.6414 30.8125 29.2188 30.8125H4.78125C4.35856 30.8125 3.95318 30.6446 3.6543 30.3457C3.35541 30.0468 3.1875 29.6414 3.1875 29.2187V17.5312C3.1875 17.1085 3.35541 16.7032 3.6543 16.4043C3.95318 16.1054 4.35856 15.9375 4.78125 15.9375H29.2188C29.6414 15.9375 30.0468 16.1054 30.3457 16.4043C30.6446 16.7032 30.8125 17.1085 30.8125 17.5312V29.2187Z" fill="#DD8741"/>
<path d="M29.2188 19.125C28.7961 19.125 28.3907 18.9571 28.0918 18.6582C27.7929 18.3593 27.625 17.9539 27.625 17.5312C27.625 17.3904 27.569 17.2552 27.4694 17.1556C27.3698 17.056 27.2346 17 27.0938 17H6.90625C6.76535 17 6.63023 17.056 6.5306 17.1556C6.43097 17.2552 6.375 17.3904 6.375 17.5312C6.375 17.9539 6.20709 18.3593 5.9082 18.6582C5.60932 18.9571 5.20394 19.125 4.78125 19.125C4.64035 19.125 4.50523 19.181 4.4056 19.2806C4.30597 19.3802 4.25 19.5154 4.25 19.6562V27.0938C4.25 27.2346 4.30597 27.3698 4.4056 27.4694C4.50523 27.569 4.64035 27.625 4.78125 27.625C5.20394 27.625 5.60932 27.7929 5.9082 28.0918C6.20709 28.3907 6.375 28.7961 6.375 29.2188C6.375 29.3596 6.43097 29.4948 6.5306 29.5944C6.63023 29.694 6.76535 29.75 6.90625 29.75H27.0938C27.2346 29.75 27.3698 29.694 27.4694 29.5944C27.569 29.4948 27.625 29.3596 27.625 29.2188C27.625 28.7961 27.7929 28.3907 28.0918 28.0918C28.3907 27.7929 28.7961 27.625 29.2188 27.625C29.3596 27.625 29.4948 27.569 29.5944 27.4694C29.694 27.3698 29.75 27.2346 29.75 27.0938V19.6562C29.75 19.5154 29.694 19.3802 29.5944 19.2806C29.4948 19.181 29.3596 19.125 29.2188 19.125ZM28.6875 26.6156C28.177 26.7197 27.7084 26.9717 27.34 27.34C26.9717 27.7084 26.7197 28.177 26.6156 28.6875H7.38437C7.28027 28.177 7.02834 27.7084 6.65995 27.34C6.29156 26.9717 5.82297 26.7197 5.3125 26.6156V20.1344C5.82297 20.0303 6.29156 19.7783 6.65995 19.41C7.02834 19.0416 7.28027 18.573 7.38437 18.0625H26.6156C26.7197 18.573 26.9717 19.0416 27.34 19.41C27.7084 19.7783 28.177 20.0303 28.6875 20.1344V26.6156Z" fill="#DD8741"/>
</svg>
