<svg width="34" height="34" viewBox="0 0 34 34" fill="none" xmlns="http://www.w3.org/2000/svg">
<path d="M17.2869 27.3785C16.9122 27.4175 16.5233 27.4366 16.1252 27.4366C9.70772 27.4366 4.52201 22.0653 4.82588 15.5833C5.09576 9.82883 9.83097 5.09433 15.5862 4.82516C22.0681 4.52271 27.438 9.70841 27.438 16.1245C27.438 16.5212 27.4182 16.9093 27.3792 17.2855C27.341 17.6502 27.6031 17.9782 27.9643 18.0398C28.3737 18.11 28.7491 17.8139 28.7909 17.4009C28.8327 16.9858 28.854 16.5594 28.854 16.1245C28.854 8.62679 22.3373 2.62225 14.671 3.4765C8.84142 4.12746 4.12888 8.83929 3.47792 14.6689C2.62155 22.3359 8.6268 28.854 16.1252 28.854C16.5608 28.854 16.988 28.8327 17.4016 28.7909C17.8153 28.7491 18.1107 28.373 18.0406 27.9636C17.9782 27.6023 17.6517 27.341 17.2869 27.3785Z" fill="#17E72C"/>
<path d="M24.6252 18.6469C21.3315 18.6469 18.6469 21.3315 18.6469 24.6252C18.6469 27.919 21.3315 30.6035 24.6252 30.6035C27.919 30.6035 30.6035 27.919 30.6035 24.6252C30.6035 21.3315 27.919 18.6469 24.6252 18.6469ZM28.174 24.7173C28.174 25.1069 27.8623 25.4256 27.4656 25.4256H25.4185V27.4656C25.4185 27.8623 25.0998 28.174 24.7102 28.174H24.5402C24.1506 28.174 23.8319 27.8623 23.8319 27.4656V25.4256H21.7848C21.3881 25.4256 21.0765 25.1069 21.0765 24.7173V24.5402C21.0765 24.1506 21.3881 23.8319 21.7848 23.8319H23.8319V21.7848C23.8319 21.3881 24.1506 21.0765 24.5402 21.0765H24.7102C25.0998 21.0765 25.4185 21.3881 25.4185 21.7848V23.8319H27.4656C27.8623 23.8319 28.174 24.1506 28.174 24.5402V24.7173Z" fill="#17E72C"/>
<path d="M16.1252 15.4162C15.186 15.4162 14.4217 14.6519 14.4217 13.7126C14.4217 12.7734 15.186 12.0091 16.1252 12.0091C17.0645 12.0091 17.8288 12.7734 17.8288 13.7126C17.8288 14.1036 18.1461 14.4209 18.5371 14.4209C18.9281 14.4209 19.2454 14.1036 19.2454 13.7126C19.2454 12.2959 18.2913 11.1109 16.9958 10.7312V9.32732C16.9958 8.93632 16.6784 8.61899 16.2874 8.61899C15.8964 8.61899 15.5791 8.93632 15.5791 9.32732V10.6477C14.1185 10.9076 13.0043 12.1791 13.0043 13.7126C13.0043 15.4332 14.404 16.8328 16.1245 16.8328C17.0638 16.8328 17.8281 17.5978 17.8281 18.5371C17.8281 19.4763 17.0638 20.2406 16.1245 20.2406C15.1853 20.2406 14.421 19.4763 14.421 18.5371C14.421 18.1454 14.1036 17.8287 13.7126 17.8287C13.3216 17.8287 13.0043 18.1454 13.0043 18.5371C13.0043 20.0706 14.1185 21.3428 15.5791 21.602V22.9238C15.5791 23.3155 15.8964 23.6321 16.2874 23.6321C16.6784 23.6321 16.9958 23.3155 16.9958 22.9238V21.5184C18.2913 21.1388 19.2454 19.953 19.2454 18.5371C19.2454 16.8158 17.8458 15.4162 16.1252 15.4162Z" fill="#17E72C"/>
</svg>
